# xmcd CD database file
#
# Track frame offsets:
#	150
#	19865
#	42177
#	66087
#	85502
#	103782
#	126797
#	149207
#	162655
#	187585
#	211870
#	230807
#	249742
#	269395
#	293462
#
# Disc length: 4158 seconds
#
# Revision: 0
# Processed by: cddbd v1.5PL3 Copyright (c) Steve Scherf et al.
# Submitted via: CDex 1.50beta8
#
DISCID=d8103c0f
DTITLE=SILK - SILK THE BEST
DYEAR=1998
DGENRE=Japanese Pop
TTITLE0=Life is a party
TTITLE1=さよならコンビニエンスkids
TTITLE2=ジョン・レノンが聴こえる夜
TTITLE3=合鍵LADY
TTITLE4=今に見てろよBoy
TTITLE5=悔賊女のMidnight Prrade
TTITLE6=STEP BY STEP
TTITLE7=Remember You　今も
TTITLE8=STOP MOTION　〜永遠に〜
TTITLE9=My Precious Trick Star〜優しさをくれたあなたへ〜
TTITLE10=SINGLE WALK
TTITLE11=Let's Get Wet
TTITLE12=FACE TO FACE
TTITLE13=Still
TTITLE14=ドリーム・シフト
EXTD=YEAR: 1998
EXTT0=
EXTT1=
EXTT2=
EXTT3=
EXTT4=
EXTT5=
EXTT6=
EXTT7=
EXTT8=
EXTT9=
EXTT10=
EXTT11=
EXTT12=
EXTT13=
EXTT14=
PLAYORDER=
